<svg width="256" height="256" viewBox="0 0 256 256" fill="none" xmlns="http://www.w3.org/2000/svg">
<rect width="256" height="256" rx="32" fill="#1C2D41"/>
<path d="M71.7666 166.837L107.923 62.4531H126.175L79.2412 189H64.4658L17.6191 62.4531H35.7842L71.7666 166.837ZM159.897 139.459V189H143.21V62.4531H189.883C203.731 62.4531 214.566 65.9876 222.389 73.0566C230.269 80.1257 234.209 89.4834 234.209 101.13C234.209 113.414 230.356 122.887 222.649 129.551C215.001 136.156 204.021 139.459 189.709 139.459H159.897ZM159.897 125.813H189.883C198.806 125.813 205.643 123.728 210.395 119.556C215.146 115.326 217.521 109.242 217.521 101.304C217.521 93.7712 215.146 87.7451 210.395 83.2256C205.643 78.7061 199.125 76.3594 190.839 76.1855H159.897V125.813Z" fill="#248AAA"/>
</svg>
